# xmcd CD database file
#
# Track frame offsets:
#	150
#	16941
#	34696
#	52301
#	69819
#	90094
#	108227
#	130575
#	150300
#	174369
#	195654
#	218394
#	242977
#	269727
#	302084
#
# Disc length: 4247 seconds
#
# Revision: 0
# Processed by: cddbd v1.5.2PL0 Copyright (c) Steve Scherf et al.
# Submitted via: CDex 1.51
#
DISCID=b910950f
DTITLE=Oscar D´Leon - Sabor De Oscar
DYEAR=1981
DGENRE=Salsa
TTITLE0=Bravo de Verdad
TTITLE1=Mi Novio
TTITLE2=Lo Mono
TTITLE3=Oye Mimo
TTITLE4=El Molo
TTITLE5=El Padre
TTITLE6=Se Necesita Nubero
TTITLE7=Me Parece Verdad
TTITLE8=Sole Bosco
TTITLE9=Al Mirarte a Ti
TTITLE10=Sun Sun Boboe
TTITLE11=El Peluquero
TTITLE12=Mi Delirio
TTITLE13=Huele a Qiemao
TTITLE14=Es Decir que eres Linda
EXTD=YEAR: 1981
EXTT0=
EXTT1=
EXTT2=
EXTT3=
EXTT4=
EXTT5=
EXTT6=
EXTT7=
EXTT8=
EXTT9=
EXTT10=
EXTT11=
EXTT12=
EXTT13=
EXTT14=
PLAYORDER=
